<svg id="vector" xmlns="http://www.w3.org/2000/svg" width="68" height="68" viewBox="0 0 68 68"><path fill="#171717" d="M68,0H0V68H68V0ZM7.4,2.66C4.894,2.911 2.911,4.894 2.66,7.4C0.891,25.089 0.891,42.911 2.66,60.599C2.911,63.106 4.894,65.089 7.4,65.34C25.089,67.109 42.911,67.109 60.599,65.34C63.106,65.089 65.089,63.106 65.34,60.599C67.109,42.911 67.109,25.089 65.34,7.4C65.089,4.894 63.106,2.911 60.599,2.66C42.911,0.891 25.089,0.891 7.4,2.66Z" fill-rule="evenodd" id="path_0"/><path fill="#FF00FF" d="M64.345,60.5C66.107,42.877 66.107,25.123 64.345,7.5C64.141,5.467 62.533,3.858 60.5,3.655C42.877,1.893 25.122,1.893 7.5,3.655C5.466,3.858 3.858,5.467 3.655,7.5C1.892,25.123 1.892,42.877 3.655,60.5C3.858,62.533 5.466,64.142 7.5,64.345C25.122,66.107 42.877,66.107 60.5,64.345C62.533,64.142 64.141,62.533 64.345,60.5ZM7.4,2.66C4.894,2.911 2.911,4.894 2.66,7.4C0.891,25.089 0.891,42.911 2.66,60.599C2.911,63.106 4.894,65.089 7.4,65.34C25.089,67.109 42.911,67.109 60.599,65.34C63.106,65.089 65.089,63.106 65.34,60.599C67.109,42.911 67.109,25.089 65.34,7.4C65.089,4.894 63.106,2.911 60.599,2.66C42.911,0.891 25.089,0.891 7.4,2.66Z" fill-rule="evenodd" id="path_1"/></svg>